<?xml version="1.0" encoding="utf-8"?>
<!-- Generator: Adobe Illustrator 27.3.1, SVG Export Plug-In . SVG Version: 6.00 Build 0)  -->
<svg version="1.1" id="Layer_1" xmlns="http://www.w3.org/2000/svg" xmlns:xlink="http://www.w3.org/1999/xlink" x="0px" y="0px"
	 viewBox="0 0 500 500" style="enable-background:new 0 0 500 500;" xml:space="preserve">
<style type="text/css">
	.st0{fill-rule:evenodd;clip-rule:evenodd;fill:#FF4E00;}
</style>
<path class="st0" d="M249.7,10C382.3,10,490,117.1,490,249.7S382.3,490,249.7,490S10,382.3,10,249.7S117.1,10,249.7,10L249.7,10z
	 M249.7,221.1l64.8-64.8c19-19,48.2,9.5,29.1,28.5l-64.8,64.8l64.8,64.8c19,19-10.1,48.2-29.1,29.1l-64.8-64.8l-64.8,64.8
	c-19,19-47.6-10.1-28.5-29.1l64.8-64.8l-64.8-64.8c-19-19,9.5-47.6,28.5-28.5L249.7,221.1z"/>
</svg>
